<svg xmlns="http://www.w3.org/2000/svg" xmlns:xlink="http://www.w3.org/1999/xlink" preserveAspectRatio="xMidYMid meet" version="1.0" viewBox="8.0 96.0 496.0 320.0" zoomAndPan="magnify" style="fill: rgb(255, 255, 255);" original_string_length="1171"><g id="__id192_snmuyurby"><path d="M476,168h-12v-24c0-26.47-21.53-48-48-48H96c-26.47,0-48,21.53-48,48v24H36c-15.44,0-28,12.56-28,28v160 c0,15.44,12.56,28,28,28h4v24c0,4.42,3.58,8,8,8h23c3.58,0,6.73-2.38,7.7-5.83L86.06,384h339.88l7.36,26.17 c0.97,3.45,4.12,5.83,7.7,5.83h23c4.42,0,8-3.58,8-8v-24h4c15.44,0,28-12.56,28-28V196C504,180.56,491.44,168,476,168z M64,144 c0-17.64,14.35-32,32-32h320c17.65,0,32,14.36,32,32v24h-12c-15.44,0-28,12.56-28,28v40.26c-8.5-7.62-19.72-12.26-32-12.26H136 c-12.28,0-23.5,4.64-32,12.26V196c0-15.44-12.56-28-28-28H64V144z M408,272v16H104v-16c0-17.64,14.35-32,32-32h240 C393.65,240,408,254.36,408,272z M64.94,400H56v-16h13.44L64.94,400z M456,400h-8.94l-4.5-16H456V400z M488,356 c0,6.62-5.38,12-12,12H36c-6.62,0-12-5.38-12-12V196c0-6.62,5.38-12,12-12h40c6.62,0,12,5.38,12,12v100c0,4.42,3.58,8,8,8h320 c4.42,0,8-3.58,8-8V196c0-6.62,5.38-12,12-12h40c6.62,0,12,5.38,12,12V356z" style="fill: inherit;"/></g></svg>