<svg xmlns="http://www.w3.org/2000/svg" xmlns:xlink="http://www.w3.org/1999/xlink" preserveAspectRatio="xMidYMid meet" version="1.0" viewBox="0.0 0.0 500.0 454.2" zoomAndPan="magnify" style="fill: rgb(0, 0, 0);" original_string_length="1486"><g id="__id97_svr8bjmspm"><path d="M22.85 46.152H476.66200000000003V335.669H22.85z" style="fill: rgb(255, 255, 255);"/></g><g id="__id98_svr8bjmspm" style="fill: rgb(255, 255, 255);"><path d="M12.58 12.58H487.41999999999996V33.571H12.58z" style="fill: inherit;"/><path d="M12.58 348.249H487.41999999999996V369.24100000000004H12.58z" style="fill: inherit;"/></g><g id="__id99_svr8bjmspm"><path d="M493.71,46.151c3.474,0,6.29-2.816,6.29-6.29V6.291c0-3.474-2.816-6.29-6.29-6.29L6.29,0 C4.622,0,3.022,0.663,1.842,1.842C0.663,3.022,0,4.622,0,6.29v33.571c0,3.474,2.816,6.29,6.29,6.29h3.98v289.518H6.29 c-1.668,0-3.268,0.662-4.448,1.842C0.663,338.69,0,340.29,0,341.958v33.572c0,3.475,2.816,6.289,6.29,6.289h236.843v14.209 c-13.213,2.891-23.138,14.678-23.138,28.744c0,16.227,13.201,29.428,29.428,29.428c16.226,0,29.427-13.201,29.427-29.428 c0-14.066-9.924-25.854-23.138-28.744v-14.209H493.71c3.474,0,6.29-2.814,6.29-6.289v-33.57c0-3.475-2.816-6.291-6.29-6.291h-4.469 V46.151H493.71z M266.27,424.772c0,9.291-7.558,16.848-16.847,16.848s-16.848-7.559-16.848-16.848s7.558-16.848,16.848-16.848 S266.27,415.483,266.27,424.772z M12.58,12.58h474.84v20.991H12.58V12.58z M487.42,369.241H12.58v-20.992h474.84V369.241 L487.42,369.241z M476.663,335.668H22.85V46.151h453.812L476.663,335.668L476.663,335.668z" style="fill: rgb(255, 255, 255);"/></g></svg>