<?xml version="1.0" encoding="UTF-8" standalone="no" ?>
<!DOCTYPE svg PUBLIC "-//W3C//DTD SVG 1.1//EN" "http://www.w3.org/Graphics/SVG/1.1/DTD/svg11.dtd">
<svg xmlns="http://www.w3.org/2000/svg" xmlns:xlink="http://www.w3.org/1999/xlink" version="1.1" width="1080" height="1080" viewBox="0 0 1080 1080" xml:space="preserve">
<desc>Created with Fabric.js 5.2.4</desc>
<defs>
</defs>
<rect x="0" y="0" width="100%" height="100%" fill="transparent"></rect>
<g transform="matrix(1 0 0 1 540 540)" id="b97b77c8-74e8-4a62-bd16-6d538f1d7e0b"  >
</g>
<g transform="matrix(1 0 0 1 540 540)" id="72aed733-0132-4b7a-a1d9-b3cf48dbcafa"  >
<rect style="stroke: none; stroke-width: 1; stroke-dasharray: none; stroke-linecap: butt; stroke-dashoffset: 0; stroke-linejoin: miter; stroke-miterlimit: 4; fill: rgb(255,255,255); fill-rule: nonzero; opacity: 1; visibility: hidden;" vector-effect="non-scaling-stroke"  x="-540" y="-540" rx="0" ry="0" width="1080" height="1080" />
</g>
<g transform="matrix(2.05 0 0 2.05 540 493.28)"  >
<g style="" vector-effect="non-scaling-stroke"   >
		<g transform="matrix(1 0 0 1 -0.24 -36.19)"  >
<path style="stroke: none; stroke-width: 1; stroke-dasharray: none; stroke-linecap: butt; stroke-dashoffset: 0; stroke-linejoin: miter; stroke-miterlimit: 4; fill: rgb(255,255,255); fill-rule: nonzero; opacity: 1;" vector-effect="non-scaling-stroke"  transform=" translate(-249.76, -190.91)" d="M 22.85 46.152 L 476.66200000000003 46.152 L 476.66200000000003 335.669 L 22.85 335.669 z" stroke-linecap="round" />
</g>
		<g transform="matrix(1 0 0 1 0 0)"  >
<path style="stroke: none; stroke-width: 1; stroke-dasharray: none; stroke-linecap: butt; stroke-dashoffset: 0; stroke-linejoin: miter; stroke-miterlimit: 4; fill: rgb(255,255,255); fill-rule: nonzero; opacity: 1;" vector-effect="non-scaling-stroke"  transform=" translate(-250, -227.1)" d="M 493.71 46.151 C 497.18399999999997 46.151 500 43.335 500 39.861000000000004 L 500 6.291 C 500 2.817 497.184 0.001000000000000334 493.71 0.001000000000000334 L 6.29 0 C 4.622 0 3.022 0.663 1.842 1.842 C 0.663 3.022 0 4.622 0 6.29 L 0 39.861 C 0 43.334999999999994 2.816 46.150999999999996 6.29 46.150999999999996 L 10.27 46.150999999999996 L 10.27 335.669 L 6.29 335.669 C 4.622 335.669 3.0220000000000002 336.33099999999996 1.8419999999999996 337.51099999999997 C 0.663 338.69 0 340.29 0 341.958 L 0 375.53000000000003 C 0 379.00500000000005 2.816 381.819 6.29 381.819 L 243.13299999999998 381.819 L 243.13299999999998 396.028 C 229.92 398.91900000000004 219.99499999999998 410.706 219.99499999999998 424.77200000000005 C 219.99499999999998 440.999 233.19599999999997 454.20000000000005 249.42299999999997 454.20000000000005 C 265.649 454.20000000000005 278.84999999999997 440.999 278.84999999999997 424.77200000000005 C 278.84999999999997 410.7060000000001 268.926 398.91800000000006 255.71199999999996 396.028 L 255.71199999999996 381.819 L 493.71 381.819 C 497.18399999999997 381.819 500 379.005 500 375.53000000000003 L 500 341.96000000000004 C 500 338.485 497.184 335.66900000000004 493.71 335.66900000000004 L 489.241 335.66900000000004 L 489.241 46.151 L 493.71 46.151 z M 266.27 424.772 C 266.27 434.063 258.712 441.62 249.42299999999997 441.62 C 240.13399999999996 441.62 232.575 434.061 232.575 424.772 C 232.575 415.483 240.13299999999998 407.924 249.423 407.924 C 258.713 407.924 266.27 415.483 266.27 424.772 z M 12.58 12.58 L 487.41999999999996 12.58 L 487.41999999999996 33.571 L 12.58 33.571 L 12.58 12.58 z M 487.42 369.241 L 12.58 369.241 L 12.58 348.24899999999997 L 487.41999999999996 348.24899999999997 L 487.41999999999996 369.241 L 487.42 369.241 z M 476.663 335.668 L 22.85 335.668 L 22.85 46.151 L 476.66200000000003 46.151 L 476.663 335.668 L 476.663 335.668 z" stroke-linecap="round" />
</g>
</g>
</g>
<g transform="matrix(2.69 0 0 2.69 540 555.92)"  >
<g style="" vector-effect="non-scaling-stroke"   >
		<g transform="matrix(1 0 0 1 0 0)"  >
<path style="stroke: none; stroke-width: 1; stroke-dasharray: none; stroke-linecap: butt; stroke-dashoffset: 0; stroke-linejoin: miter; stroke-miterlimit: 4; fill: rgb(255,255,255); fill-rule: evenodd; opacity: 1;" vector-effect="non-scaling-stroke"  transform=" translate(-150.45, -190.7)" d="M 0.5 0.5 L 0.5 380.9 L 300.4 380.9 L 300.4 0.5 L 0.5 0.5 z M 145.4 354.2 L 29.8 354.2 L 29.8 187.7 L 145.4 187.7 L 145.4 354.2 z M 145.4 166.3 L 29.8 166.3 L 29.8 28.3 L 145.4 28.3 L 145.4 166.3 z M 273.5 354.2 L 157.9 354.2 L 157.9 187.7 L 273.5 187.7 L 273.5 354.2 z M 273.5 166.3 L 157.9 166.3 L 157.9 28.3 L 273.5 28.3 L 273.5 166.3 z" stroke-linecap="round" />
</g>
		<g transform="matrix(1 0 0 1 0 0)"  >
<path style="stroke: none; stroke-width: 1; stroke-dasharray: none; stroke-linecap: butt; stroke-dashoffset: 0; stroke-linejoin: miter; stroke-miterlimit: 4; fill: rgb(255,255,255); fill-rule: nonzero; opacity: 1;" vector-effect="non-scaling-stroke"  transform=" translate(-150.45, -190.7)" d="M 300.4 381.4 L 0.5 381.4 C 0.2 381.4 0 381.2 0 380.9 L 0 0.5 C 0 0.2 0.2 0 0.5 0 L 300.4 0 C 300.7 0 300.9 0.2 300.9 0.5 L 300.9 380.9 C 300.8 381.2 300.6 381.4 300.4 381.4 z M 1 380.4 L 299.9 380.4 L 299.9 1 L 1 1 L 1 380.4 z M 273.5 354.7 L 157.9 354.7 C 157.6 354.7 157.4 354.5 157.4 354.2 L 157.4 187.7 C 157.4 187.39999999999998 157.6 187.2 157.9 187.2 L 273.5 187.2 C 273.8 187.2 274 187.39999999999998 274 187.7 L 274 354.2 C 274 354.4 273.7 354.7 273.5 354.7 z M 158.4 353.7 L 273 353.7 L 273 188.2 L 158.4 188.2 L 158.4 353.7 z M 145.4 354.7 L 29.8 354.7 C 29.5 354.7 29.3 354.5 29.3 354.2 L 29.3 187.7 C 29.3 187.39999999999998 29.5 187.2 29.8 187.2 L 145.4 187.2 C 145.70000000000002 187.2 145.9 187.39999999999998 145.9 187.7 L 145.9 354.2 C 145.9 354.4 145.7 354.7 145.4 354.7 z M 30.3 353.7 L 144.9 353.7 L 144.9 188.2 L 30.3 188.2 L 30.3 353.7 z M 273.5 166.8 L 157.9 166.8 C 157.6 166.8 157.4 166.60000000000002 157.4 166.3 L 157.4 28.3 C 157.4 28 157.6 27.8 157.9 27.8 L 273.5 27.8 C 273.8 27.8 274 28 274 28.3 L 274 166.4 C 274 166.6 273.7 166.8 273.5 166.8 z M 158.4 165.8 L 273 165.8 L 273 28.7 L 158.4 28.7 L 158.4 165.8 z M 145.4 166.8 L 29.8 166.8 C 29.5 166.8 29.3 166.60000000000002 29.3 166.3 L 29.3 28.3 C 29.3 28 29.5 27.8 29.8 27.8 L 145.4 27.8 C 145.70000000000002 27.8 145.9 28 145.9 28.3 L 145.9 166.4 C 145.9 166.6 145.7 166.8 145.4 166.8 z M 30.3 165.8 L 144.9 165.8 L 144.9 28.7 L 30.3 28.7 L 30.3 165.8 z" stroke-linecap="round" />
</g>
</g>
</g>
</svg>