<svg xmlns="http://www.w3.org/2000/svg" xmlns:xlink="http://www.w3.org/1999/xlink" preserveAspectRatio="xMidYMid meet" version="1.0" viewBox="0.0 0.0 300.9 381.4" zoomAndPan="magnify" style="fill: rgb(0, 0, 0);" original_string_length="1433"><g id="__id92_svr8bjmspm"><path clip-rule="evenodd" d="M0.5,0.5v380.4h299.9V0.5H0.5z M145.4,354.2H29.8V187.7h115.6V354.2z M145.4,166.3H29.8V28.3h115.6V166.3z M273.5,354.2H157.9V187.7h115.6V354.2z M273.5,166.3H157.9V28.3h115.6V166.3z" fill-rule="evenodd" style="fill: rgb(255, 255, 255);"/></g><g id="__id93_svr8bjmspm"><path d="M300.4,381.4H0.5c-0.3,0-0.5-0.2-0.5-0.5V0.5C0,0.2,0.2,0,0.5,0h299.9c0.3,0,0.5,0.2,0.5,0.5v380.4 C300.8,381.2,300.6,381.4,300.4,381.4z M1,380.4h298.9V1H1V380.4z M273.5,354.7H157.9c-0.3,0-0.5-0.2-0.5-0.5V187.7 c0-0.3,0.2-0.5,0.5-0.5h115.6c0.3,0,0.5,0.2,0.5,0.5v166.5C274,354.4,273.7,354.7,273.5,354.7z M158.4,353.7H273V188.2H158.4V353.7z M145.4,354.7H29.8c-0.3,0-0.5-0.2-0.5-0.5V187.7c0-0.3,0.2-0.5,0.5-0.5h115.6c0.3,0,0.5,0.2,0.5,0.5v166.5 C145.9,354.4,145.7,354.7,145.4,354.7z M30.3,353.7h114.6V188.2H30.3V353.7z M273.5,166.8H157.9c-0.3,0-0.5-0.2-0.5-0.5V28.3 c0-0.3,0.2-0.5,0.5-0.5h115.6c0.3,0,0.5,0.2,0.5,0.5v138.1C274,166.6,273.7,166.8,273.5,166.8z M158.4,165.8H273V28.7H158.4V165.8z M145.4,166.8H29.8c-0.3,0-0.5-0.2-0.5-0.5V28.3c0-0.3,0.2-0.5,0.5-0.5h115.6c0.3,0,0.5,0.2,0.5,0.5v138.1 C145.9,166.6,145.7,166.8,145.4,166.8z M30.3,165.8h114.6V28.7H30.3V165.8z" style="fill: rgb(255, 255, 255);"/></g></svg>